<?xml version="1.0" encoding="UTF-8"?>

<svg version="1.1" id="Layer_1" xmlns="http://www.w3.org/2000/svg" xmlns:xlink="http://www.w3.org/1999/xlink" x="0px" y="0px"
	 width="100%" viewBox="0 0 412 373" enable-background="new 0 0 412 373" xml:space="preserve">
<path fill="#000000" opacity="1.000000" stroke="none" 
	d="
M1.000000,134.000000 
	C1.000000,89.333344 1.000000,45.166683 1.000000,1.000018 
	C138.333298,1.000012 275.666595,1.000012 412.999939,1.000006 
	C412.999939,125.333282 412.999939,249.666565 412.999969,373.999878 
	C275.666748,373.999939 138.333496,373.999939 1.000119,373.999969 
	C1.000000,294.166656 1.000000,214.333328 1.000000,134.000000 
M89.082428,284.765839 
	C85.452400,300.792206 81.822372,316.818573 78.192345,332.844940 
	C73.393936,318.880646 69.394920,305.049438 65.369492,291.225922 
	C62.628647,281.813690 62.614082,281.890656 52.752449,282.158539 
	C50.074551,282.231262 48.762764,282.857178 47.957485,285.807556 
	C43.866207,300.796967 39.420177,315.689636 35.079025,330.610565 
	C34.774002,331.658966 34.312637,332.661865 33.737385,334.177551 
	C29.640013,316.323730 25.734922,299.307770 21.896515,282.582336 
	C15.539844,282.582336 9.979294,282.582336 3.880392,282.582336 
	C4.336562,284.652802 4.628851,286.227051 5.032626,287.772125 
	C7.715613,298.038727 10.406875,308.303253 13.125775,318.560425 
	C16.096426,329.767334 19.013050,340.990295 22.193968,352.137543 
	C22.612350,353.603760 24.385921,355.652008 25.650642,355.740967 
	C31.250071,356.134674 36.892883,355.911377 42.124622,355.911377 
	C46.724457,340.509735 51.118294,325.797821 55.512131,311.085907 
	C59.639984,322.022980 62.564896,332.573303 65.718262,343.054840 
	C67.010765,347.351044 67.644646,353.263367 70.668999,355.237762 
	C73.956833,357.384125 79.674873,355.819397 84.333458,355.845398 
	C85.322838,355.850922 86.312889,355.738129 87.852287,355.647522 
	C93.912834,332.481293 99.981071,309.285675 106.698044,285.611511 
	C107.242851,283.584412 107.208847,282.010010 104.407112,282.048645 
	C99.956932,282.110046 95.502510,281.979950 91.057053,282.135651 
	C90.429504,282.157593 89.842415,283.334747 89.082428,284.765839 
M83.039658,191.500000 
	C83.046219,201.162964 82.963890,210.826981 83.080048,220.488632 
	C83.257027,235.209671 97.953957,249.869568 112.520424,249.875031 
	C173.992798,249.898087 235.465179,249.890976 296.937531,249.855316 
	C298.385620,249.854477 299.861389,249.495056 301.277069,249.123260 
	C315.889679,245.285767 324.983337,231.841217 324.982452,217.567108 
	C324.978912,160.254333 324.921509,102.941429 325.060669,45.628994 
	C325.074219,40.049240 324.087555,34.944565 321.942078,29.865265 
	C317.632751,19.663244 306.219971,12.143963 295.162201,12.152297 
	C234.184296,12.198255 173.205658,12.328716 112.228867,12.062627 
	C97.343880,11.997672 83.123444,25.978037 83.094276,40.554028 
	C82.994263,90.535858 83.045341,140.517990 83.039658,191.500000 
M287.533142,282.024719 
	C284.113647,282.024719 280.694153,282.024719 277.380066,282.024719 
	C277.380066,307.354645 277.380066,331.900726 277.380066,357.415131 
	C289.291382,356.800568 300.851318,356.587891 312.314362,355.422180 
	C316.844269,354.961548 321.677643,353.157928 325.477936,350.623810 
	C339.453491,341.304596 344.458496,327.878845 341.868408,311.425446 
	C339.815704,298.385620 329.731995,286.752625 316.558563,284.299133 
	C307.391113,282.591736 297.881805,282.719696 287.533142,282.024719 
M161.891830,315.805328 
	C160.447433,308.481598 156.078339,303.413361 148.951462,301.799896 
	C141.146210,300.032898 133.231171,299.913361 126.980576,307.976440 
	C126.980576,300.230896 127.173592,293.432983 126.836456,286.661499 
	C126.758224,285.090210 125.031349,282.469330 123.788925,282.295929 
	C119.764885,281.734375 115.613365,282.086212 111.339401,282.086212 
	C111.339401,306.980377 111.339401,331.220306 111.339401,355.423218 
	C116.663475,355.423218 121.686752,355.423218 126.936852,355.423218 
	C126.936852,351.594940 126.844360,348.268402 126.955528,344.948639 
	C127.210503,337.334167 127.306725,329.700531 127.968330,322.118378 
	C128.418961,316.953949 132.902130,313.704407 138.003387,314.012909 
	C143.282272,314.332153 145.972839,316.847443 146.101944,322.559937 
	C146.307404,331.650635 146.076691,340.750763 146.072235,349.846924 
	C146.071289,351.763184 146.250732,353.679474 146.339249,355.440369 
	C152.238190,355.440369 157.465942,355.440369 162.938843,355.440369 
	C162.938843,343.954346 162.983917,332.963257 162.893219,321.973267 
	C162.878601,320.200165 162.259644,318.432068 161.891830,315.805328 
M391.459595,353.014557 
	C400.052490,348.374756 405.542694,333.308746 402.978210,322.178680 
	C398.052887,300.802063 374.262177,295.158325 358.529175,305.391785 
	C348.369904,311.999878 344.908569,325.438446 348.634338,339.089386 
	C352.689789,353.948486 373.853455,363.927307 391.459595,353.014557 
M222.957321,320.714935 
	C220.133835,308.814514 209.739212,300.408173 194.929459,300.234253 
	C183.307327,300.097748 173.170929,307.741028 169.647736,318.968445 
	C163.068558,339.934509 176.844742,360.200958 200.563004,356.966949 
	C218.777161,354.483459 226.653320,337.997162 222.957321,320.714935 
M269.533997,335.335480 
	C268.505249,330.618378 265.697510,327.400360 261.177948,325.804779 
	C256.584534,324.183105 251.768356,323.089081 247.366714,321.072205 
	C245.225540,320.091095 243.807083,317.532745 242.061447,315.688416 
	C244.557220,314.700165 247.179016,312.658112 249.523056,312.938507 
	C254.731720,313.561493 259.801270,315.347778 265.315033,316.759064 
	C266.204041,314.484955 267.469208,311.819855 268.228638,309.017731 
	C268.522095,307.934814 268.078522,305.908112 267.274139,305.387360 
	C259.675720,300.468140 244.310089,298.273895 235.431763,303.879883 
	C228.560196,308.218781 227.551895,314.477448 228.201645,321.544556 
	C228.738754,327.386658 232.586700,330.584412 237.842407,332.198395 
	C241.427612,333.299408 245.102859,334.148193 248.782089,334.890381 
	C252.424393,335.625092 256.217010,337.253723 255.576920,341.030090 
	C255.281464,342.773285 250.464005,343.854492 247.598938,344.988495 
	C246.825882,345.294464 245.665710,344.789429 244.733139,344.497284 
	C239.963562,343.003204 235.210312,341.457031 230.445038,339.927032 
	C229.540543,342.389435 228.130554,345.236176 227.550873,348.242950 
	C227.278992,349.653168 228.234467,352.398560 229.274521,352.776825 
	C234.306183,354.606659 239.472961,356.419403 244.743851,357.168030 
	C258.351624,359.100861 272.458771,352.141174 269.533997,335.335480 
z"/>
<path fill="#EE372C" opacity="1.000000" stroke="none" 
	d="
M83.039238,191.000000 
	C83.045341,140.517990 82.994263,90.535858 83.094276,40.554028 
	C83.123444,25.978037 97.343880,11.997672 112.228867,12.062627 
	C173.205658,12.328716 234.184296,12.198255 295.162201,12.152297 
	C306.219971,12.143963 317.632751,19.663244 321.942078,29.865265 
	C324.087555,34.944565 325.074219,40.049240 325.060669,45.628994 
	C324.921509,102.941429 324.978912,160.254333 324.982452,217.567108 
	C324.983337,231.841217 315.889679,245.285767 301.277069,249.123260 
	C299.861389,249.495056 298.385620,249.854477 296.937531,249.855316 
	C235.465179,249.890976 173.992798,249.898087 112.520424,249.875031 
	C97.953957,249.869568 83.257027,235.209671 83.080048,220.488632 
	C82.963890,210.826981 83.046219,201.162964 83.039238,191.000000 
M293.241760,25.848396 
	C233.422974,25.851227 173.604187,25.842886 113.785454,25.900198 
	C111.533165,25.902357 109.101891,26.110453 107.061646,26.960732 
	C99.574104,30.081179 96.908173,36.169540 96.916573,43.984474 
	C96.977623,100.804146 97.125694,157.624771 96.839378,214.443024 
	C96.771545,227.905212 104.682129,236.402802 118.713821,236.305817 
	C176.530548,235.906174 234.352264,236.012894 292.170715,236.263992 
	C303.247253,236.312088 310.986877,228.537201 311.005829,217.289795 
	C311.103302,159.470413 311.076965,101.650764 311.032623,43.831245 
	C311.024384,33.081188 305.032471,26.839439 293.241760,25.848396 
z"/>
<path fill="#EF352A" opacity="1.000000" stroke="none" 
	d="
M106.049316,286.090027 
	C99.981071,309.285675 93.912834,332.481293 87.852287,355.647522 
	C86.312889,355.738129 85.322838,355.850922 84.333458,355.845398 
	C79.674873,355.819397 73.956833,357.384125 70.668999,355.237762 
	C67.644646,353.263367 67.010765,347.351044 65.718262,343.054840 
	C62.564896,332.573303 59.639984,322.022980 55.512131,311.085907 
	C51.118294,325.797821 46.724457,340.509735 42.124622,355.911377 
	C36.892883,355.911377 31.250071,356.134674 25.650642,355.740967 
	C24.385921,355.652008 22.612350,353.603760 22.193968,352.137543 
	C19.013050,340.990295 16.096426,329.767334 13.125775,318.560425 
	C10.406875,308.303253 7.715613,298.038727 5.032626,287.772125 
	C4.628851,286.227051 4.336562,284.652802 3.880392,282.582336 
	C9.979294,282.582336 15.539844,282.582336 21.896515,282.582336 
	C25.734922,299.307770 29.640013,316.323730 33.737385,334.177551 
	C34.312637,332.661865 34.774002,331.658966 35.079025,330.610565 
	C39.420177,315.689636 43.866207,300.796967 47.957485,285.807556 
	C48.762764,282.857178 50.074551,282.231262 52.752449,282.158539 
	C62.614082,281.890656 62.628647,281.813690 65.369492,291.225922 
	C69.394920,305.049438 73.393936,318.880646 78.192345,332.844940 
	C81.822372,316.818573 85.452400,300.792206 89.610184,284.377808 
	C92.088287,283.973022 94.077438,283.703369 95.980476,283.995239 
	C99.364250,284.514160 102.695877,285.373230 106.049316,286.090027 
z"/>
<path fill="#F0362B" opacity="1.000000" stroke="none" 
	d="
M288.029175,282.026245 
	C297.881805,282.719696 307.391113,282.591736 316.558563,284.299133 
	C329.731995,286.752625 339.815704,298.385620 341.868408,311.425446 
	C344.458496,327.878845 339.453491,341.304596 325.477936,350.623810 
	C321.677643,353.157928 316.844269,354.961548 312.314362,355.422180 
	C300.851318,356.587891 289.291382,356.800568 277.380066,357.415131 
	C277.380066,331.900726 277.380066,307.354645 277.380066,282.024719 
	C280.694153,282.024719 284.113647,282.024719 288.029175,282.026245 
M320.831604,333.188202 
	C326.462128,324.560760 326.999664,315.299927 321.972382,306.637329 
	C315.773621,295.956085 305.049927,296.259155 294.148621,297.228455 
	C294.148621,312.224945 294.148621,326.964966 294.148621,341.913177 
	C295.528931,342.019257 296.683380,342.306671 297.777740,342.156555 
	C301.786743,341.606598 305.994537,341.496582 309.711609,340.107819 
	C313.526337,338.682526 316.854034,335.953583 320.831604,333.188202 
z"/>
<path fill="#F0352A" opacity="1.000000" stroke="none" 
	d="
M161.905945,316.233490 
	C162.259644,318.432068 162.878601,320.200165 162.893219,321.973267 
	C162.983917,332.963257 162.938843,343.954346 162.938843,355.440369 
	C157.465942,355.440369 152.238190,355.440369 146.339249,355.440369 
	C146.250732,353.679474 146.071289,351.763184 146.072235,349.846924 
	C146.076691,340.750763 146.307404,331.650635 146.101944,322.559937 
	C145.972839,316.847443 143.282272,314.332153 138.003387,314.012909 
	C132.902130,313.704407 128.418961,316.953949 127.968330,322.118378 
	C127.306725,329.700531 127.210503,337.334167 126.955528,344.948639 
	C126.844360,348.268402 126.936852,351.594940 126.936852,355.423218 
	C121.686752,355.423218 116.663475,355.423218 111.339401,355.423218 
	C111.339401,331.220306 111.339401,306.980377 111.339401,282.086212 
	C115.613365,282.086212 119.764885,281.734375 123.788925,282.295929 
	C125.031349,282.469330 126.758224,285.090210 126.836456,286.661499 
	C127.173592,293.432983 126.980576,300.230896 126.980576,307.976440 
	C133.231171,299.913361 141.146210,300.032898 148.951462,301.799896 
	C156.078339,303.413361 160.447433,308.481598 161.905945,316.233490 
z"/>
<path fill="#EE342A" opacity="1.000000" stroke="none" 
	d="
M391.162537,353.239563 
	C373.853455,363.927307 352.689789,353.948486 348.634338,339.089386 
	C344.908569,325.438446 348.369904,311.999878 358.529175,305.391785 
	C374.262177,295.158325 398.052887,300.802063 402.978210,322.178680 
	C405.542694,333.308746 400.052490,348.374756 391.162537,353.239563 
M378.736237,314.216125 
	C367.210571,313.016052 361.146515,320.680939 363.739624,333.171631 
	C365.369171,341.020874 368.918488,344.278259 375.786560,344.227692 
	C382.007812,344.181885 385.826599,340.573608 386.938934,333.277313 
	C387.926025,326.802521 386.416504,316.970612 378.736237,314.216125 
z"/>
<path fill="#EE352A" opacity="1.000000" stroke="none" 
	d="
M223.032806,321.134094 
	C226.653320,337.997162 218.777161,354.483459 200.563004,356.966949 
	C176.844742,360.200958 163.068558,339.934509 169.647736,318.968445 
	C173.170929,307.741028 183.307327,300.097748 194.929459,300.234253 
	C209.739212,300.408173 220.133835,308.814514 223.032806,321.134094 
M198.167618,313.906891 
	C190.011169,313.766510 185.094849,316.746307 184.075394,323.183258 
	C183.486313,326.902893 183.463684,330.879822 184.102859,334.582733 
	C184.854034,338.934570 187.378525,342.857361 191.938675,343.846893 
	C196.036240,344.736084 200.562759,345.171783 204.032394,341.532074 
	C208.806732,336.523712 210.070343,325.131256 205.963104,319.495483 
	C204.276917,317.181763 201.371429,315.756622 198.167618,313.906891 
z"/>
<path fill="#EC352B" opacity="1.000000" stroke="none" 
	d="
M269.668640,335.738403 
	C272.458771,352.141174 258.351624,359.100861 244.743851,357.168030 
	C239.472961,356.419403 234.306183,354.606659 229.274521,352.776825 
	C228.234467,352.398560 227.278992,349.653168 227.550873,348.242950 
	C228.130554,345.236176 229.540543,342.389435 230.445038,339.927032 
	C235.210312,341.457031 239.963562,343.003204 244.733139,344.497284 
	C245.665710,344.789429 246.825882,345.294464 247.598938,344.988495 
	C250.464005,343.854492 255.281464,342.773285 255.576920,341.030090 
	C256.217010,337.253723 252.424393,335.625092 248.782089,334.890381 
	C245.102859,334.148193 241.427612,333.299408 237.842407,332.198395 
	C232.586700,330.584412 228.738754,327.386658 228.201645,321.544556 
	C227.551895,314.477448 228.560196,308.218781 235.431763,303.879883 
	C244.310089,298.273895 259.675720,300.468140 267.274139,305.387360 
	C268.078522,305.908112 268.522095,307.934814 268.228638,309.017731 
	C267.469208,311.819855 266.204041,314.484955 265.315033,316.759064 
	C259.801270,315.347778 254.731720,313.561493 249.523056,312.938507 
	C247.179016,312.658112 244.557220,314.700165 242.061447,315.688416 
	C243.807083,317.532745 245.225540,320.091095 247.366714,321.072205 
	C251.768356,323.089081 256.584534,324.183105 261.177948,325.804779 
	C265.697510,327.400360 268.505249,330.618378 269.668640,335.738403 
z"/>
<path fill="#C11C18" opacity="1.000000" stroke="none" 
	d="
M106.373680,285.850769 
	C102.695877,285.373230 99.364250,284.514160 95.980476,283.995239 
	C94.077438,283.703369 92.088287,283.973022 89.687263,283.983490 
	C89.842415,283.334747 90.429504,282.157593 91.057053,282.135651 
	C95.502510,281.979950 99.956932,282.110046 104.407112,282.048645 
	C107.208847,282.010010 107.242851,283.584412 106.373680,285.850769 
z"/>
<path fill="#000000" opacity="1.000000" stroke="none" 
	d="
M293.705933,25.851746 
	C305.032471,26.839439 311.024384,33.081188 311.032623,43.831245 
	C311.076965,101.650764 311.103302,159.470413 311.005829,217.289795 
	C310.986877,228.537201 303.247253,236.312088 292.170715,236.263992 
	C234.352264,236.012894 176.530548,235.906174 118.713821,236.305817 
	C104.682129,236.402802 96.771545,227.905212 96.839378,214.443024 
	C97.125694,157.624771 96.977623,100.804146 96.916573,43.984474 
	C96.908173,36.169540 99.574104,30.081179 107.061646,26.960732 
	C109.101891,26.110453 111.533165,25.902357 113.785454,25.900198 
	C173.604187,25.842886 233.422974,25.851227 293.705933,25.851746 
M130.483261,216.752411 
	C130.975220,216.821213 131.467163,216.950089 131.959152,216.950302 
	C179.469315,216.970001 226.979462,216.987320 274.489594,216.947510 
	C275.672607,216.946518 276.855103,216.306992 278.435120,215.866074 
	C278.435120,215.866074 278.788391,215.658997 279.506866,215.816177 
	C285.282043,213.683090 288.028381,209.622116 288.007812,203.383713 
	C287.911285,174.129974 287.880554,144.875641 288.006134,115.622307 
	C288.016663,113.168182 288.717804,110.204910 290.197021,108.358612 
	C296.328491,100.705421 297.178040,92.064400 295.256134,83.064415 
	C293.105835,72.994705 290.477570,63.013527 287.653900,53.108822 
	C286.724792,49.849831 285.735077,46.142601 280.668579,46.154354 
	C229.536560,46.272999 178.404190,46.255863 127.271980,46.209064 
	C124.303482,46.206348 122.814804,47.223675 122.024940,50.176544 
	C118.897842,61.867126 115.137383,73.403893 112.432022,85.186028 
	C110.720787,92.638634 112.653938,99.845459 116.977211,106.424843 
	C118.575768,108.857620 119.857643,112.036148 119.878677,114.884933 
	C120.096397,144.363525 119.995949,173.844330 120.059662,203.324356 
	C120.074348,210.122360 122.966682,213.934433 129.488632,215.938965 
	C129.488632,215.938965 129.970154,216.064941 130.483261,216.752411 
z"/>
<path fill="#000000" opacity="1.000000" stroke="none" 
	d="
M320.613220,333.491699 
	C316.854034,335.953583 313.526337,338.682526 309.711609,340.107819 
	C305.994537,341.496582 301.786743,341.606598 297.777740,342.156555 
	C296.683380,342.306671 295.528931,342.019257 294.148621,341.913177 
	C294.148621,326.964966 294.148621,312.224945 294.148621,297.228455 
	C305.049927,296.259155 315.773621,295.956085 321.972382,306.637329 
	C326.999664,315.299927 326.462128,324.560760 320.613220,333.491699 
z"/>
<path fill="#000000" opacity="1.000000" stroke="none" 
	d="
M379.058624,314.472107 
	C386.416504,316.970612 387.926025,326.802521 386.938934,333.277313 
	C385.826599,340.573608 382.007812,344.181885 375.786560,344.227692 
	C368.918488,344.278259 365.369171,341.020874 363.739624,333.171631 
	C361.146515,320.680939 367.210571,313.016052 379.058624,314.472107 
z"/>
<path fill="#000000" opacity="1.000000" stroke="none" 
	d="
M198.594116,313.917084 
	C201.371429,315.756622 204.276917,317.181763 205.963104,319.495483 
	C210.070343,325.131256 208.806732,336.523712 204.032394,341.532074 
	C200.562759,345.171783 196.036240,344.736084 191.938675,343.846893 
	C187.378525,342.857361 184.854034,338.934570 184.102859,334.582733 
	C183.463684,330.879822 183.486313,326.902893 184.075394,323.183258 
	C185.094849,316.746307 190.011169,313.766510 198.594116,313.917084 
z"/>
<path fill="#F4382C" opacity="1.000000" stroke="none" 
	d="
M129.029205,215.747528 
	C122.966682,213.934433 120.074348,210.122360 120.059662,203.324356 
	C119.995949,173.844330 120.096397,144.363525 119.878677,114.884933 
	C119.857643,112.036148 118.575768,108.857620 116.977211,106.424843 
	C112.653938,99.845459 110.720787,92.638634 112.432022,85.186028 
	C115.137383,73.403893 118.897842,61.867126 122.024940,50.176544 
	C122.814804,47.223675 124.303482,46.206348 127.271980,46.209064 
	C178.404190,46.255863 229.536560,46.272999 280.668579,46.154354 
	C285.735077,46.142601 286.724792,49.849831 287.653900,53.108822 
	C290.477570,63.013527 293.105835,72.994705 295.256134,83.064415 
	C297.178040,92.064400 296.328491,100.705421 290.197021,108.358612 
	C288.717804,110.204910 288.016663,113.168182 288.006134,115.622307 
	C287.880554,144.875641 287.911285,174.129974 288.007812,203.383713 
	C288.028381,209.622116 285.282043,213.683090 278.789856,215.587143 
	C276.750366,215.254028 275.427917,215.059433 274.105377,215.058929 
	C227.374283,215.040985 180.643188,215.034103 133.912109,215.068802 
	C132.284317,215.070007 130.656830,215.511322 129.029205,215.747528 
M221.667404,178.088608 
	C234.189529,179.753357 242.067566,187.149826 246.909531,198.396454 
	C247.494125,199.754303 248.615723,201.892807 249.552917,201.927490 
	C257.294250,202.214081 265.050781,202.089600 272.781494,202.089600 
	C272.781494,173.678665 272.781494,145.951202 272.781494,117.831139 
	C260.837189,119.069916 252.028168,114.644760 246.506012,104.066505 
	C241.591995,112.631523 235.096573,118.108772 224.992859,117.973557 
	C214.960205,117.839287 208.197189,112.740356 203.997955,103.479279 
	C196.854187,120.245018 174.025375,124.750237 161.503403,105.022369 
	C155.529312,114.839233 146.757492,119.129654 135.283112,117.800308 
	C135.283112,146.209000 135.283112,174.053284 135.283112,202.145279 
	C142.501434,202.145279 149.319824,202.068085 156.134979,202.182755 
	C158.910660,202.229477 160.339874,201.643356 161.531219,198.580353 
	C165.858353,187.455246 173.377090,179.652328 186.640762,178.418533 
	C198.041000,178.344330 209.441238,178.270111 221.667404,178.088608 
z"/>
<path fill="#E2140A" opacity="1.000000" stroke="none" 
	d="
M129.258911,215.843246 
	C130.656830,215.511322 132.284317,215.070007 133.912109,215.068802 
	C180.643188,215.034103 227.374283,215.040985 274.105377,215.058929 
	C275.427917,215.059433 276.750366,215.254028 278.430634,215.508545 
	C278.788391,215.658997 278.435120,215.866074 277.764069,215.915192 
	C228.052063,215.997864 179.011108,216.031403 129.970154,216.064941 
	C129.970154,216.064941 129.488632,215.938965 129.258911,215.843246 
z"/>
<path fill="#D3332B" opacity="1.000000" stroke="none" 
	d="
M130.226715,216.408661 
	C179.011108,216.031403 228.052063,215.997864 277.565430,215.964798 
	C276.855103,216.306992 275.672607,216.946518 274.489594,216.947510 
	C226.979462,216.987320 179.469315,216.970001 131.959152,216.950302 
	C131.467163,216.950089 130.975220,216.821213 130.226715,216.408661 
z"/>
<path fill="#000000" opacity="1.000000" stroke="none" 
	d="
M185.899887,178.021133 
	C173.377090,179.652328 165.858353,187.455246 161.531219,198.580353 
	C160.339874,201.643356 158.910660,202.229477 156.134979,202.182755 
	C149.319824,202.068085 142.501434,202.145279 135.283112,202.145279 
	C135.283112,174.053284 135.283112,146.209000 135.283112,117.800308 
	C146.757492,119.129654 155.529312,114.839233 161.503403,105.022369 
	C174.025375,124.750237 196.854187,120.245018 203.997955,103.479279 
	C208.197189,112.740356 214.960205,117.839287 224.992859,117.973557 
	C235.096573,118.108772 241.591995,112.631523 246.506012,104.066505 
	C252.028168,114.644760 260.837189,119.069916 272.781494,117.831139 
	C272.781494,145.951202 272.781494,173.678665 272.781494,202.089600 
	C265.050781,202.089600 257.294250,202.214081 249.552917,201.927490 
	C248.615723,201.892807 247.494125,199.754303 246.909531,198.396454 
	C242.067566,187.149826 234.189529,179.753357 220.859924,178.031097 
	C208.668243,177.989426 197.284073,178.005280 185.899887,178.021133 
M226.646286,151.364410 
	C225.234787,146.912537 224.676727,141.909866 222.233353,138.123978 
	C217.215302,130.348755 209.328262,126.496696 200.170807,128.397751 
	C191.165024,130.267303 184.492035,135.914856 182.523544,145.431870 
	C179.292007,161.055237 190.662476,173.382889 205.435913,172.595016 
	C217.461441,171.953690 224.441528,164.552841 226.646286,151.364410 
z"/>
<path fill="#D51814" opacity="1.000000" stroke="none" 
	d="
M186.270325,178.219833 
	C197.284073,178.005280 208.668243,177.989426 220.446960,178.084747 
	C209.441238,178.270111 198.041000,178.344330 186.270325,178.219833 
z"/>
<path fill="#F1372C" opacity="1.000000" stroke="none" 
	d="
M226.452118,151.720001 
	C224.441528,164.552841 217.461441,171.953690 205.435913,172.595016 
	C190.662476,173.382889 179.292007,161.055237 182.523544,145.431870 
	C184.492035,135.914856 191.165024,130.267303 200.170807,128.397751 
	C209.328262,126.496696 217.215302,130.348755 222.233353,138.123978 
	C224.676727,141.909866 225.234787,146.912537 226.452118,151.720001 
z"/>
</svg>