<svg version="1.1" id="Layer_1" xmlns="http://www.w3.org/2000/svg" xmlns:xlink="http://www.w3.org/1999/xlink" x="0px" y="0px"
	 width="100%" viewBox="0 0 180 180" enable-background="new 0 0 180 180" xml:space="preserve">
<path fill="#000000" opacity="1.000000" stroke="none" 
	d="
M109.000000,181.000000 
	C72.666672,181.000000 36.833336,181.000000 1.000005,181.000000 
	C1.000003,121.000008 1.000003,61.000011 1.000002,1.000013 
	C60.999989,1.000009 120.999977,1.000009 180.999969,1.000004 
	C180.999985,60.999985 180.999985,120.999969 181.000000,180.999969 
	C157.166672,181.000000 133.333328,181.000000 109.000000,181.000000 
M76.138916,43.508148 
	C76.430054,43.713261 76.721191,43.918369 77.080070,44.511478 
	C77.080070,44.511478 77.229729,44.875801 77.199661,45.406094 
	C77.468315,45.614643 77.736961,45.823196 78.019333,45.988781 
	C78.019333,45.988781 77.975006,45.997112 78.156242,46.573383 
	C78.769020,47.087620 79.381790,47.601852 80.058960,48.516273 
	C80.058960,48.516273 80.202217,48.895447 80.176140,49.444611 
	C80.457336,49.661587 80.738525,49.878563 81.170769,50.506550 
	C81.341591,50.764107 81.578209,50.924744 82.024391,51.648415 
	C83.008888,52.810242 83.993385,53.972069 85.049393,55.558987 
	C85.049393,55.558987 85.192657,55.965553 85.164314,56.488049 
	C85.441177,56.681339 85.718040,56.874630 85.998482,56.997604 
	C85.998482,56.997604 85.928146,56.994576 86.117546,57.509621 
	C86.415512,57.709747 86.713486,57.909870 87.113724,58.554047 
	C87.113724,58.554047 87.289742,58.974361 87.262863,59.453667 
	C87.421753,59.761463 87.671852,59.944790 88.009743,59.991272 
	C88.009743,59.991272 87.997704,59.986881 88.290909,60.648773 
	C90.746864,62.625042 93.043121,62.926693 94.983406,59.990627 
	C94.983406,59.990627 94.993279,60.040718 95.486755,59.839241 
	C95.586884,59.518673 95.687012,59.198101 95.934891,58.515987 
	C95.934891,58.515987 95.994453,58.129982 96.484718,57.895329 
	C96.671387,57.595158 96.858055,57.294987 96.990448,56.990631 
	C96.990448,56.990631 97.012230,57.040512 97.572487,56.763126 
	C97.771759,56.178108 97.971031,55.593094 98.867096,54.930195 
	C102.636452,49.422379 106.497124,43.974384 110.153732,38.392708 
	C115.613869,30.058025 114.550575,17.017317 107.996887,11.125399 
	C98.355865,2.457886 87.447105,2.141093 78.275665,8.481423 
	C70.874397,13.598008 67.289612,23.422260 70.009895,30.696707 
	C70.658333,32.486176 71.306778,34.275646 71.981247,36.008778 
	C71.981247,36.008778 71.920868,36.023129 71.987297,36.718033 
	C72.989418,38.197586 73.991539,39.677143 75.061226,41.525867 
	C75.061226,41.525867 75.197891,41.875397 75.156113,42.420795 
	C75.435684,42.628796 75.715263,42.836800 76.009735,42.989967 
	C76.009735,42.989967 75.953598,42.998734 76.138916,43.508148 
M79.087410,166.531036 
	C79.408249,166.627151 79.729080,166.723267 80.449188,166.957779 
	C80.449188,166.957779 80.865662,167.029312 81.150253,167.607025 
	C81.759529,167.774979 82.368813,167.942917 83.334671,168.717514 
	C86.196014,169.741272 89.057350,170.765045 92.632187,171.915695 
	C94.110786,171.286850 95.589378,170.658020 97.007072,170.012024 
	C97.007072,170.012024 97.008148,170.075287 97.674072,169.968292 
	C98.800705,169.318893 99.927345,168.669495 100.996826,167.993866 
	C100.996826,167.993866 100.985603,168.055740 101.490814,167.838531 
	C101.724289,167.558929 101.957756,167.279343 102.538559,166.949463 
	C102.538559,166.949463 102.866920,166.825607 103.515915,166.754227 
	C104.387924,166.160599 105.259941,165.566986 106.739922,164.662674 
	C119.764244,157.277786 132.574432,149.473938 145.893768,142.666245 
	C153.797958,138.626297 156.180206,132.869476 155.994232,124.571480 
	C155.665421,109.900948 156.095154,95.214722 155.903442,80.539040 
	C155.844559,76.031136 154.794342,71.536171 153.830582,66.416962 
	C141.849991,59.638023 129.834427,52.919678 117.912979,46.038269 
	C114.866440,44.279716 112.880135,45.785442 110.963409,47.651852 
	C106.317894,52.175434 101.798820,56.828537 97.194313,61.394680 
	C92.485382,66.064400 90.854897,66.170204 86.075829,61.630623 
	C81.495987,57.280273 76.991119,52.835567 72.691399,48.210960 
	C69.663208,44.953964 66.799950,44.873478 63.224983,47.236832 
	C59.316303,49.820805 55.213699,52.124428 51.114281,54.403965 
	C44.203621,58.246723 37.228813,61.974102 29.560701,66.146217 
	C28.733147,68.379196 27.212011,70.604500 27.187204,72.846359 
	C26.979195,91.645905 27.065964,110.448540 27.013653,129.250107 
	C27.002340,133.315613 28.231625,136.950577 31.719572,139.004761 
	C39.984764,143.872437 48.465572,148.373978 57.125580,153.584656 
	C57.785938,153.994400 58.446297,154.404129 59.472294,154.945862 
	C59.472294,154.945862 59.858665,154.988647 60.168640,155.566620 
	C60.787830,155.739517 61.407024,155.912415 62.002419,155.987259 
	C62.002419,155.987259 61.904339,156.010971 62.087219,156.531998 
	C62.410305,156.628189 62.733387,156.724380 63.454872,156.955231 
	C63.454872,156.955231 63.872070,157.008072 64.101410,157.504898 
	C64.404526,157.691833 64.707642,157.878784 65.000824,158.003616 
	C65.000824,158.003616 64.943741,158.030029 65.250824,158.636993 
	C66.496399,159.118668 67.741966,159.600357 68.990532,160.010300 
	C68.990532,160.010300 68.918800,160.007385 69.104050,160.513397 
	C69.419563,160.616852 69.735085,160.720306 70.428101,160.973648 
	C70.428101,160.973648 70.831917,161.017288 71.083237,161.533890 
	C71.424721,161.631104 71.766197,161.728333 72.471817,161.961197 
	C72.471817,161.961197 72.857689,162.006989 73.075691,162.523499 
	C73.388603,162.708389 73.701523,162.893280 73.996841,163.011002 
	C73.996841,163.011002 73.930473,163.031357 74.244011,163.637299 
	C75.497314,164.127121 76.750610,164.616928 78.010429,164.998016 
	C78.010429,164.998016 77.901695,164.991425 78.095688,165.510880 
	C78.400696,165.703140 78.705711,165.895401 78.997932,165.998535 
	C78.997932,165.998535 78.908821,166.011414 79.087410,166.531036 
z"/>
<path fill="#06895B" opacity="1.000000" stroke="none" 
	d="
M154.198074,67.035294 
	C154.794342,71.536171 155.844559,76.031136 155.903442,80.539040 
	C156.095154,95.214722 155.665421,109.900948 155.994232,124.571480 
	C156.180206,132.869476 153.797958,138.626297 145.893768,142.666245 
	C132.574432,149.473938 119.764244,157.277786 106.103790,164.849274 
	C104.600746,165.632446 103.733833,166.229019 102.866920,166.825607 
	C102.866920,166.825607 102.538559,166.949463 102.142838,167.126373 
	C101.493279,167.554092 101.239449,167.804916 100.985611,168.055756 
	C100.985603,168.055740 100.996826,167.993866 100.667244,168.010269 
	C99.227821,168.709534 98.117981,169.392410 97.008148,170.075287 
	C97.008148,170.075287 97.007072,170.012024 96.622932,170.009064 
	C94.860695,170.006561 93.482597,170.006989 92.062256,169.539902 
	C91.987671,147.044067 91.955345,125.015770 92.219238,102.811562 
	C104.220612,95.988487 115.957054,89.395607 127.620789,82.676537 
	C136.527618,77.545624 145.342361,72.254913 154.198074,67.035294 
M116.602936,129.530334 
	C115.968292,133.380615 115.333649,137.230911 114.699013,141.081192 
	C115.198128,141.221909 115.697250,141.362610 116.196373,141.503311 
	C117.267441,140.105560 118.215988,138.588928 119.433922,137.333664 
	C122.389709,134.287247 124.312096,129.882431 130.114563,131.038269 
	C136.072067,132.224976 137.186234,130.847107 135.484695,124.972786 
	C134.055969,120.040367 134.341507,115.792305 137.675354,111.612793 
	C139.643829,109.144966 140.809280,106.036575 142.773178,102.408272 
	C140.934891,102.691551 140.167175,102.725868 139.449463,102.933250 
	C130.852524,105.417351 130.857376,105.422661 126.829697,97.041039 
	C126.733635,96.841110 126.376213,96.766777 125.712021,96.391945 
	C125.098671,97.534737 124.208008,98.574257 123.964905,99.747910 
	C122.400444,107.300873 120.647888,114.650124 112.054092,117.486206 
	C111.481125,117.675285 111.080833,118.371170 110.585556,118.814957 
	C108.448288,120.730034 108.500076,122.151909 111.125694,123.787064 
	C113.221214,125.092079 114.890961,127.080780 116.602936,129.530334 
z"/>
<path fill="#23BA7B" opacity="1.000000" stroke="none" 
	d="
M154.014328,66.726128 
	C145.342361,72.254913 136.527618,77.545624 127.620789,82.676537 
	C115.957054,89.395607 104.220612,95.988487 91.931145,102.630692 
	C72.564362,92.237717 53.741467,81.921165 35.057976,71.358047 
	C33.050461,70.223061 31.853790,67.653893 30.280987,65.750008 
	C37.228813,61.974102 44.203621,58.246723 51.114281,54.403965 
	C55.213699,52.124428 59.316303,49.820805 63.224983,47.236832 
	C66.799950,44.873478 69.663208,44.953964 72.691399,48.210960 
	C76.991119,52.835567 81.495987,57.280273 86.075829,61.630623 
	C90.854897,66.170204 92.485382,66.064400 97.194313,61.394680 
	C101.798820,56.828537 106.317894,52.175434 110.963409,47.651852 
	C112.880135,45.785442 114.866440,44.279716 117.912979,46.038269 
	C129.834427,52.919678 141.849991,59.638023 154.014328,66.726128 
z"/>
<path fill="#45C890" opacity="1.000000" stroke="none" 
	d="
M29.920845,65.948112 
	C31.853790,67.653893 33.050461,70.223061 35.057976,71.358047 
	C53.741467,81.921165 72.564362,92.237717 91.634933,102.806610 
	C91.955345,125.015770 91.987671,147.044067 92.001839,169.833084 
	C91.962013,170.992126 91.940353,171.390472 91.918694,171.788803 
	C89.057350,170.765045 86.196014,169.741272 83.162811,168.134949 
	C82.991455,167.366516 82.991943,167.180649 83.022903,166.977875 
	C83.053360,166.960968 83.005089,167.007446 82.648796,167.004745 
	C81.816887,167.011139 81.341278,167.020233 80.865662,167.029327 
	C80.865662,167.029312 80.449188,166.957779 80.074722,166.732117 
	C79.455818,166.310471 79.192009,166.145447 78.908821,166.011414 
	C78.908821,166.011414 78.997932,165.998535 78.837212,165.842926 
	C78.418228,165.455368 78.159958,165.223389 77.901695,164.991425 
	C77.901695,164.991425 78.010429,164.998016 77.801140,164.777802 
	C76.371391,164.048828 75.150932,163.540085 73.930473,163.031357 
	C73.930473,163.031357 73.996841,163.011002 73.831573,162.846237 
	C73.396759,162.456650 73.127228,162.231812 72.857689,162.006989 
	C72.857689,162.006989 72.471817,161.961197 72.091866,161.734497 
	C71.418579,161.344299 71.125252,161.180801 70.831917,161.017288 
	C70.831917,161.017288 70.428101,160.973648 70.066711,160.740173 
	C69.464111,160.307236 69.201935,160.140793 68.918800,160.007385 
	C68.918800,160.007385 68.990532,160.010300 68.832794,159.737885 
	C67.431274,158.987000 66.187508,158.508514 64.943741,158.030029 
	C64.943741,158.030029 65.000824,158.003616 64.836365,157.837128 
	C64.405296,157.449799 64.138687,157.228928 63.872070,157.008072 
	C63.872070,157.008072 63.454872,156.955231 63.078732,156.731049 
	C62.456268,156.309753 62.190186,156.144455 61.904339,156.010971 
	C61.904339,156.010971 62.002419,155.987259 61.777515,155.839600 
	C60.987965,155.457520 60.423317,155.223083 59.858665,154.988647 
	C59.858665,154.988647 59.472294,154.945862 59.135071,154.623444 
	C58.151638,153.875183 57.505432,153.449356 56.859222,153.023514 
	C48.465572,148.373978 39.984764,143.872437 31.719572,139.004761 
	C28.231625,136.950577 27.002340,133.315613 27.013653,129.250107 
	C27.065964,110.448540 26.979195,91.645905 27.187204,72.846359 
	C27.212011,70.604500 28.733147,68.379196 29.920845,65.948112 
M66.895691,146.469162 
	C69.031166,147.464691 71.166641,148.460220 74.072861,149.815048 
	C73.939110,141.048965 72.408737,134.158783 66.680847,129.332458 
	C62.497093,125.807190 57.568203,123.108269 52.781887,120.372704 
	C48.152355,117.726738 44.577763,118.637413 42.166615,122.544327 
	C39.620499,126.669975 40.604893,131.233063 44.900696,133.982727 
	C50.323666,137.453873 55.848534,140.769363 61.391010,144.047913 
	C62.877781,144.927399 64.588402,145.428452 66.895691,146.469162 
M48.975418,103.321602 
	C49.664631,108.765106 51.921391,113.500679 56.352463,116.715752 
	C58.090576,117.976891 61.227997,119.003250 62.871490,118.254967 
	C64.754761,117.397530 66.577972,114.564796 66.859268,112.387634 
	C67.617142,106.522026 65.477242,101.167305 60.839661,97.531265 
	C58.774281,95.911934 55.298038,94.881020 52.789387,95.346527 
	C49.696262,95.920494 48.439388,99.097137 48.975418,103.321602 
z"/>
<path fill="#25B87C" opacity="1.000000" stroke="none" 
	d="
M77.229729,44.875801 
	C77.229729,44.875801 77.080070,44.511478 76.906876,44.096584 
	C76.473648,43.454037 76.213623,43.226383 75.953598,42.998734 
	C75.953598,42.998734 76.009735,42.989967 75.896881,42.805420 
	C75.617973,42.349331 75.422592,42.100838 75.197891,41.875397 
	C75.197891,41.875397 75.061226,41.525867 74.995842,40.973316 
	C73.927261,38.954887 72.924065,37.489010 71.920868,36.023129 
	C71.920868,36.023129 71.981247,36.008778 71.976021,35.666729 
	C71.364357,33.527950 70.757912,31.731220 70.151466,29.934492 
	C67.289612,23.422260 70.874397,13.598008 78.275665,8.481423 
	C87.447105,2.141093 98.355865,2.457886 107.996887,11.125399 
	C114.550575,17.017317 115.613869,30.058025 110.153732,38.392708 
	C106.497124,43.974384 102.636452,49.422379 98.305809,55.179623 
	C97.500420,55.966202 97.256325,56.503357 97.012230,57.040512 
	C97.012230,57.040512 96.990448,56.990631 96.811775,57.151672 
	C96.420219,57.585136 96.207336,57.857559 95.994453,58.129982 
	C95.994453,58.129982 95.934891,58.515987 95.702919,58.873901 
	C95.272087,59.478050 95.112862,59.747684 94.993279,60.040718 
	C94.993279,60.040718 94.983406,59.990627 94.567322,59.996925 
	C92.100052,59.997776 90.048882,59.992329 87.997704,59.986881 
	C87.997704,59.986881 88.009743,59.991272 87.920837,59.806435 
	C87.684174,59.378235 87.503441,59.162491 87.289742,58.974361 
	C87.289742,58.974361 87.113724,58.554047 86.915680,58.114895 
	C86.454468,57.448689 86.191307,57.221634 85.928146,56.994576 
	C85.928146,56.994576 85.998482,56.997604 85.889542,56.830765 
	C85.612366,56.407772 85.416389,56.174980 85.192657,55.965553 
	C85.192657,55.965553 85.049393,55.558987 84.973480,55.001312 
	C83.891922,53.291916 82.886276,52.140186 81.880623,50.988457 
	C81.578209,50.924744 81.341591,50.764107 80.991219,50.080429 
	C80.643867,49.372971 80.440720,49.120014 80.202217,48.895447 
	C80.202217,48.895447 80.058960,48.516273 79.919495,48.026978 
	C79.178360,47.024155 78.576683,46.510632 77.975006,45.997112 
	C77.975006,45.997112 78.019333,45.988781 77.912277,45.799728 
	C77.646179,45.340046 77.454346,45.095085 77.229729,44.875801 
M83.988770,19.988821 
	C83.988770,19.988821 84.043449,20.000381 83.645645,20.311272 
	C83.428917,20.568163 83.212189,20.825056 82.984695,20.988989 
	C82.984695,20.988989 83.077644,20.978092 82.701164,21.438141 
	C82.476234,21.982428 82.251305,22.526714 81.999237,22.999584 
	C81.999237,22.999584 82.070633,22.972408 81.668983,23.566639 
	C81.717178,25.402863 81.765373,27.239084 81.952148,29.457087 
	C81.952148,29.457087 82.005814,29.859678 82.229706,30.306652 
	C82.428841,30.574320 82.627968,30.841988 82.959961,31.471846 
	C82.959961,31.471846 83.013954,31.853836 83.300133,32.284977 
	C83.549278,32.522255 83.798431,32.759537 83.991783,33.006821 
	C83.991783,33.006821 84.007042,32.952229 84.301094,33.353031 
	C84.519913,33.605770 84.771271,33.820396 84.993774,34.008911 
	C84.993774,34.008911 84.997543,33.946480 85.339729,34.341885 
	C85.614418,34.555737 85.889114,34.769592 86.877892,35.048336 
	C92.937523,38.507030 96.904755,34.753315 101.289093,30.430317 
	C102.122910,26.597845 104.384972,22.442778 98.997658,20.004951 
	C98.997658,20.004951 99.003281,20.067312 98.692047,19.665136 
	C98.437813,19.441656 98.183586,19.218178 98.005013,18.993391 
	C98.005013,18.993391 98.006378,19.069050 97.686462,18.670349 
	C97.431625,18.444704 97.176788,18.219059 96.997520,18.002489 
	C96.997520,18.002489 96.988426,18.078062 96.634476,17.448013 
	C94.082191,17.239790 91.529900,17.031567 88.566544,16.958048 
	C88.566544,16.958048 88.136696,17.006706 87.691383,17.208612 
	C87.401741,17.364614 87.138596,17.556873 86.504814,17.922462 
	C86.504814,17.922462 86.092117,18.001129 85.682098,18.303915 
	C85.453659,18.554792 85.225220,18.805668 84.992584,18.992096 
	C84.992584,18.992096 85.056709,18.999771 84.657150,19.297142 
	C84.403191,19.514847 84.184517,19.763575 83.988770,19.988821 
z"/>
<path fill="#3EA37C" opacity="1.000000" stroke="none" 
	d="
M88.144302,60.317825 
	C90.048882,59.992329 92.100052,59.997776 94.591667,60.004585 
	C93.043121,62.926693 90.746864,62.625042 88.144302,60.317825 
z"/>
<path fill="#3EA37C" opacity="1.000000" stroke="none" 
	d="
M71.954086,36.370583 
	C72.924065,37.489010 73.927261,38.954887 74.962059,40.788734 
	C73.991539,39.677143 72.989418,38.197586 71.954086,36.370583 
z"/>
<path fill="#227F5E" opacity="1.000000" stroke="none" 
	d="
M92.275436,171.852249 
	C91.940353,171.390472 91.962013,170.992126 92.044083,170.300613 
	C93.482597,170.006989 94.860695,170.006561 96.653381,170.017639 
	C95.589378,170.658020 94.110786,171.286850 92.275436,171.852249 
z"/>
<path fill="#3EA37C" opacity="1.000000" stroke="none" 
	d="
M70.080681,30.315599 
	C70.757912,31.731220 71.364357,33.527950 71.963005,35.694901 
	C71.306778,34.275646 70.658333,32.486176 70.080681,30.315599 
z"/>
<path fill="#3EA37C" opacity="1.000000" stroke="none" 
	d="
M81.952507,51.318436 
	C82.886276,52.140186 83.891922,53.291916 84.937729,54.788769 
	C83.993385,53.972069 83.008888,52.810242 81.952507,51.318436 
z"/>
<path fill="#227F5E" opacity="1.000000" stroke="none" 
	d="
M97.341110,170.021790 
	C98.117981,169.392410 99.227821,168.709534 100.695824,168.023392 
	C99.927345,168.669495 98.800705,169.318893 97.341110,170.021790 
z"/>
<path fill="#59B794" opacity="1.000000" stroke="none" 
	d="
M65.097282,158.333511 
	C66.187508,158.508514 67.431274,158.987000 68.831299,159.773758 
	C67.741966,159.600357 66.496399,159.118668 65.097282,158.333511 
z"/>
<path fill="#59B794" opacity="1.000000" stroke="none" 
	d="
M74.087242,163.334320 
	C75.150932,163.540085 76.371391,164.048828 77.797882,164.832153 
	C76.750610,164.616928 75.497314,164.127121 74.087242,163.334320 
z"/>
<path fill="#227F5E" opacity="1.000000" stroke="none" 
	d="
M103.191422,166.789917 
	C103.733833,166.229019 104.600746,165.632446 105.799805,165.004623 
	C105.259941,165.566986 104.387924,166.160599 103.191422,166.789917 
z"/>
<path fill="#59B794" opacity="1.000000" stroke="none" 
	d="
M56.992401,153.304077 
	C57.505432,153.449356 58.151638,153.875183 58.952248,154.557434 
	C58.446297,154.404129 57.785938,153.994400 56.992401,153.304077 
z"/>
<path fill="#3EA37C" opacity="1.000000" stroke="none" 
	d="
M78.065628,46.285248 
	C78.576683,46.510632 79.178360,47.024155 79.887299,47.826881 
	C79.381790,47.601852 78.769020,47.087620 78.065628,46.285248 
z"/>
<path fill="#3EA37C" opacity="1.000000" stroke="none" 
	d="
M97.292358,56.901817 
	C97.256325,56.503357 97.500420,55.966202 97.957413,55.218563 
	C97.971031,55.593094 97.771759,56.178108 97.292358,56.901817 
z"/>
<path fill="#59B794" opacity="1.000000" stroke="none" 
	d="
M60.013653,155.277634 
	C60.423317,155.223083 60.987965,155.457520 61.789413,155.888641 
	C61.407024,155.912415 60.787830,155.739517 60.013653,155.277634 
z"/>
<path fill="#59B794" opacity="1.000000" stroke="none" 
	d="
M81.007957,167.318176 
	C81.341278,167.020233 81.816887,167.011139 82.646210,167.001022 
	C82.999924,167.000000 82.992439,166.994766 82.992439,166.994766 
	C82.991943,167.180649 82.991455,167.366516 82.984528,167.831619 
	C82.368813,167.942917 81.759529,167.774979 81.007957,167.318176 
z"/>
<path fill="#59B794" opacity="1.000000" stroke="none" 
	d="
M77.998688,165.251160 
	C78.159958,165.223389 78.418228,165.455368 78.843613,165.887497 
	C78.705711,165.895401 78.400696,165.703140 77.998688,165.251160 
z"/>
<path fill="#59B794" opacity="1.000000" stroke="none" 
	d="
M78.998116,166.271225 
	C79.192009,166.145447 79.455818,166.310471 79.875084,166.662933 
	C79.729080,166.723267 79.408249,166.627151 78.998116,166.271225 
z"/>
<path fill="#59B794" opacity="1.000000" stroke="none" 
	d="
M72.966690,162.265244 
	C73.127228,162.231812 73.396759,162.456650 73.840370,162.879822 
	C73.701523,162.893280 73.388603,162.708389 72.966690,162.265244 
z"/>
<path fill="#59B794" opacity="1.000000" stroke="none" 
	d="
M70.957581,161.275589 
	C71.125252,161.180801 71.418579,161.344299 71.909798,161.666687 
	C71.766197,161.728333 71.424721,161.631104 70.957581,161.275589 
z"/>
<path fill="#59B794" opacity="1.000000" stroke="none" 
	d="
M69.011429,160.260391 
	C69.201935,160.140793 69.464111,160.307236 69.877960,160.665222 
	C69.735085,160.720306 69.419563,160.616852 69.011429,160.260391 
z"/>
<path fill="#59B794" opacity="1.000000" stroke="none" 
	d="
M63.986740,157.256485 
	C64.138687,157.228928 64.405296,157.449799 64.841339,157.868195 
	C64.707642,157.878784 64.404526,157.691833 63.986740,157.256485 
z"/>
<path fill="#59B794" opacity="1.000000" stroke="none" 
	d="
M61.995781,156.271484 
	C62.190186,156.144455 62.456268,156.309753 62.879532,156.663727 
	C62.733387,156.724380 62.410305,156.628189 61.995781,156.271484 
z"/>
<path fill="#227F5E" opacity="1.000000" stroke="none" 
	d="
M101.238213,167.947144 
	C101.239449,167.804916 101.493279,167.554092 101.969177,167.151505 
	C101.957756,167.279343 101.724289,167.558929 101.238213,167.947144 
z"/>
<path fill="#3EA37C" opacity="1.000000" stroke="none" 
	d="
M86.022842,57.252098 
	C86.191307,57.221634 86.454468,57.448689 86.864540,57.892868 
	C86.713486,57.909870 86.415512,57.709747 86.022842,57.252098 
z"/>
<path fill="#3EA37C" opacity="1.000000" stroke="none" 
	d="
M75.177002,42.148094 
	C75.422592,42.100838 75.617973,42.349331 75.889435,42.832832 
	C75.715263,42.836800 75.435684,42.628796 75.177002,42.148094 
z"/>
<path fill="#3EA37C" opacity="1.000000" stroke="none" 
	d="
M76.046257,43.253441 
	C76.213623,43.226383 76.473648,43.454037 76.873001,43.902584 
	C76.721191,43.918369 76.430054,43.713261 76.046257,43.253441 
z"/>
<path fill="#3EA37C" opacity="1.000000" stroke="none" 
	d="
M77.214691,45.140945 
	C77.454346,45.095085 77.646179,45.340046 77.905426,45.821213 
	C77.736961,45.823196 77.468315,45.614643 77.214691,45.140945 
z"/>
<path fill="#3EA37C" opacity="1.000000" stroke="none" 
	d="
M80.189178,49.170029 
	C80.440720,49.120014 80.643867,49.372971 80.915695,49.874924 
	C80.738525,49.878563 80.457336,49.661587 80.189178,49.170029 
z"/>
<path fill="#3EA37C" opacity="1.000000" stroke="none" 
	d="
M85.178482,56.226799 
	C85.416389,56.174980 85.612366,56.407772 85.887749,56.865925 
	C85.718040,56.874630 85.441177,56.681339 85.178482,56.226799 
z"/>
<path fill="#3EA37C" opacity="1.000000" stroke="none" 
	d="
M96.239586,58.012657 
	C96.207336,57.857559 96.420219,57.585136 96.838913,57.153767 
	C96.858055,57.294987 96.671387,57.595158 96.239586,58.012657 
z"/>
<path fill="#3EA37C" opacity="1.000000" stroke="none" 
	d="
M87.276306,59.214012 
	C87.503441,59.162491 87.684174,59.378235 87.922539,59.812630 
	C87.671852,59.944790 87.421753,59.761463 87.276306,59.214012 
z"/>
<path fill="#3EA37C" opacity="1.000000" stroke="none" 
	d="
M95.240021,59.939980 
	C95.112862,59.747684 95.272087,59.478050 95.629044,59.054676 
	C95.687012,59.198101 95.586884,59.518673 95.240021,59.939980 
z"/>
<path fill="#000000" opacity="1.000000" stroke="none" 
	d="
M116.676315,129.148163 
	C114.890961,127.080780 113.221214,125.092079 111.125694,123.787064 
	C108.500076,122.151909 108.448288,120.730034 110.585556,118.814957 
	C111.080833,118.371170 111.481125,117.675285 112.054092,117.486206 
	C120.647888,114.650124 122.400444,107.300873 123.964905,99.747910 
	C124.208008,98.574257 125.098671,97.534737 125.712021,96.391945 
	C126.376213,96.766777 126.733635,96.841110 126.829697,97.041039 
	C130.857376,105.422661 130.852524,105.417351 139.449463,102.933250 
	C140.167175,102.725868 140.934891,102.691551 142.773178,102.408272 
	C140.809280,106.036575 139.643829,109.144966 137.675354,111.612793 
	C134.341507,115.792305 134.055969,120.040367 135.484695,124.972786 
	C137.186234,130.847107 136.072067,132.224976 130.114563,131.038269 
	C124.312096,129.882431 122.389709,134.287247 119.433922,137.333664 
	C118.215988,138.588928 117.267441,140.105560 116.196373,141.503311 
	C115.697250,141.362610 115.198128,141.221909 114.699013,141.081192 
	C115.333649,137.230911 115.968292,133.380615 116.676315,129.148163 
z"/>
<path fill="#000000" opacity="1.000000" stroke="none" 
	d="
M66.545975,146.286194 
	C64.588402,145.428452 62.877781,144.927399 61.391010,144.047913 
	C55.848534,140.769363 50.323666,137.453873 44.900696,133.982727 
	C40.604893,131.233063 39.620499,126.669975 42.166615,122.544327 
	C44.577763,118.637413 48.152355,117.726738 52.781887,120.372704 
	C57.568203,123.108269 62.497093,125.807190 66.680847,129.332458 
	C72.408737,134.158783 73.939110,141.048965 74.072861,149.815048 
	C71.166641,148.460220 69.031166,147.464691 66.545975,146.286194 
z"/>
<path fill="#000000" opacity="1.000000" stroke="none" 
	d="
M48.973583,102.895874 
	C48.439388,99.097137 49.696262,95.920494 52.789387,95.346527 
	C55.298038,94.881020 58.774281,95.911934 60.839661,97.531265 
	C65.477242,101.167305 67.617142,106.522026 66.859268,112.387634 
	C66.577972,114.564796 64.754761,117.397530 62.871490,118.254967 
	C61.227997,119.003250 58.090576,117.976891 56.352463,116.715752 
	C51.921391,113.500679 49.664631,108.765106 48.973583,102.895874 
z"/>
<path fill="#59B794" opacity="1.000000" stroke="none" 
	d="
M83.002502,167.003723 
	C83.005089,167.007446 83.053360,166.960968 83.022903,166.977875 
	C82.992439,166.994766 82.999924,167.000000 83.002502,167.003723 
z"/>
<path fill="#000000" opacity="1.000000" stroke="none" 
	d="
M100.869019,30.989361 
	C96.904755,34.753315 92.937523,38.507030 86.400589,34.767513 
	C85.614708,34.306622 85.306129,34.126553 84.997543,33.946480 
	C84.997543,33.946480 84.993774,34.008911 84.941360,33.750046 
	C84.594986,33.311531 84.301010,33.131882 84.007042,32.952229 
	C84.007042,32.952229 83.991783,33.006821 83.936447,32.742989 
	C83.592064,32.270714 83.303009,32.062275 83.013954,31.853836 
	C83.013954,31.853836 82.959961,31.471846 82.913063,31.007141 
	C82.579384,30.314850 82.292595,30.087263 82.005814,29.859678 
	C82.005814,29.859678 81.952148,29.457087 81.945885,28.831755 
	C81.983292,26.461752 82.026962,24.717079 82.070633,22.972408 
	C82.070633,22.972408 81.999237,22.999584 82.284439,22.879505 
	C82.738968,22.165649 82.908302,21.571871 83.077644,20.978092 
	C83.077644,20.978092 82.984695,20.988989 83.237976,20.935495 
	C83.675323,20.588127 83.859383,20.294252 84.043442,20.000381 
	C84.043449,20.000381 83.988770,19.988821 84.244576,19.928955 
	C84.685829,19.579319 84.871269,19.289545 85.056709,18.999771 
	C85.056709,18.999771 84.992584,18.992096 85.246826,18.931776 
	C85.698082,18.581347 85.895103,18.291239 86.092117,18.001129 
	C86.092117,18.001129 86.504814,17.922462 86.980331,17.882137 
	C87.682800,17.563442 87.909752,17.285074 88.136696,17.006706 
	C88.136696,17.006706 88.566544,16.958048 89.187218,16.956699 
	C92.201401,17.329586 94.594917,17.703825 96.988426,18.078062 
	C96.988426,18.078062 96.997520,18.002489 97.050491,18.255692 
	C97.404434,18.695614 97.705406,18.882332 98.006378,19.069050 
	C98.006378,19.069050 98.005013,18.993391 98.060272,19.247509 
	C98.411453,19.690189 98.707367,19.878750 99.003281,20.067312 
	C99.003281,20.067312 98.997658,20.004951 99.144173,20.363319 
	C99.816795,24.144245 100.342903,27.566803 100.869019,30.989361 
z"/>
<path fill="#3AAB7E" opacity="1.000000" stroke="none" 
	d="
M101.079056,30.709839 
	C100.342903,27.566803 99.816795,24.144245 99.115173,20.375122 
	C104.384972,22.442778 102.122910,26.597845 101.079056,30.709839 
z"/>
<path fill="#3AAB7E" opacity="1.000000" stroke="none" 
	d="
M96.811447,17.763039 
	C94.594917,17.703825 92.201401,17.329586 89.392754,16.889347 
	C91.529900,17.031567 94.082191,17.239790 96.811447,17.763039 
z"/>
<path fill="#3AAB7E" opacity="1.000000" stroke="none" 
	d="
M81.869812,23.269524 
	C82.026962,24.717079 81.983292,26.461752 81.876595,28.640865 
	C81.765373,27.239084 81.717178,25.402863 81.869812,23.269524 
z"/>
<path fill="#3AAB7E" opacity="1.000000" stroke="none" 
	d="
M82.889404,21.208117 
	C82.908302,21.571871 82.738968,22.165649 82.298004,22.915215 
	C82.251305,22.526714 82.476234,21.982428 82.889404,21.208117 
z"/>
<path fill="#3AAB7E" opacity="1.000000" stroke="none" 
	d="
M98.847664,19.866224 
	C98.707367,19.878750 98.411453,19.690189 98.022446,19.248163 
	C98.183586,19.218178 98.437813,19.441656 98.847664,19.866224 
z"/>
<path fill="#3AAB7E" opacity="1.000000" stroke="none" 
	d="
M87.914040,17.107658 
	C87.909752,17.285074 87.682800,17.563442 87.178902,17.813599 
	C87.138596,17.556873 87.401741,17.364614 87.914040,17.107658 
z"/>
<path fill="#3AAB7E" opacity="1.000000" stroke="none" 
	d="
M83.157043,32.069405 
	C83.303009,32.062275 83.592064,32.270714 83.964348,32.737988 
	C83.798431,32.759537 83.549278,32.522255 83.157043,32.069405 
z"/>
<path fill="#3AAB7E" opacity="1.000000" stroke="none" 
	d="
M84.154068,33.152630 
	C84.301010,33.131882 84.594986,33.311531 84.972061,33.744049 
	C84.771271,33.820396 84.519913,33.605770 84.154068,33.152630 
z"/>
<path fill="#3AAB7E" opacity="1.000000" stroke="none" 
	d="
M85.168640,34.144180 
	C85.306129,34.126553 85.614708,34.306622 86.043549,34.735069 
	C85.889114,34.769592 85.614418,34.555737 85.168640,34.144180 
z"/>
<path fill="#3AAB7E" opacity="1.000000" stroke="none" 
	d="
M85.887108,18.152523 
	C85.895103,18.291239 85.698082,18.581347 85.248924,18.964001 
	C85.225220,18.805668 85.453659,18.554792 85.887108,18.152523 
z"/>
<path fill="#3AAB7E" opacity="1.000000" stroke="none" 
	d="
M83.844543,20.155827 
	C83.859383,20.294252 83.675323,20.588127 83.243362,20.981976 
	C83.212189,20.825056 83.428917,20.568163 83.844543,20.155827 
z"/>
<path fill="#3AAB7E" opacity="1.000000" stroke="none" 
	d="
M82.117760,30.083164 
	C82.292595,30.087263 82.579384,30.314850 82.846634,30.826046 
	C82.627968,30.841988 82.428841,30.574320 82.117760,30.083164 
z"/>
<path fill="#3AAB7E" opacity="1.000000" stroke="none" 
	d="
M84.856934,19.148457 
	C84.871269,19.289545 84.685829,19.579319 84.250748,19.956207 
	C84.184517,19.763575 84.403191,19.514847 84.856934,19.148457 
z"/>
<path fill="#3AAB7E" opacity="1.000000" stroke="none" 
	d="
M97.846420,18.869699 
	C97.705406,18.882332 97.404434,18.695614 97.012711,18.251156 
	C97.176788,18.219059 97.431625,18.444704 97.846420,18.869699 
z"/>
</svg>